<mxfile host="app.diagrams.net" agent="Mozilla/5.0 (Windows NT 10.0; Win64; x64) AppleWebKit/537.36 (KHTML, like Gecko) Chrome/129.0.0.0 Safari/537.36 Edg/129.0.0.0" version="24.7.17" pages="3">
  <diagram id="C5RBs43oDa-KdzZeNtuy" name="Page-1">
    <mxGraphModel dx="1452" dy="647" grid="1" gridSize="10" guides="1" tooltips="1" connect="1" arrows="1" fold="1" page="1" pageScale="1" pageWidth="827" pageHeight="1169" math="0" shadow="0">
      <root>
        <mxCell id="WIyWlLk6GJQsqaUBKTNV-0" />
        <mxCell id="WIyWlLk6GJQsqaUBKTNV-1" parent="WIyWlLk6GJQsqaUBKTNV-0" />
        <mxCell id="pamhmHW9VrJN2FMVK3K_-0" style="edgeStyle=orthogonalEdgeStyle;rounded=0;orthogonalLoop=1;jettySize=auto;html=1;exitX=0.5;exitY=1;exitDx=0;exitDy=0;entryX=0.5;entryY=0;entryDx=0;entryDy=0;" parent="WIyWlLk6GJQsqaUBKTNV-1" source="WIyWlLk6GJQsqaUBKTNV-3" target="WIyWlLk6GJQsqaUBKTNV-6" edge="1">
          <mxGeometry relative="1" as="geometry" />
        </mxCell>
        <mxCell id="WIyWlLk6GJQsqaUBKTNV-3" value="input(X, Y)" style="rounded=1;whiteSpace=wrap;html=1;fontSize=12;glass=0;strokeWidth=1;shadow=0;" parent="WIyWlLk6GJQsqaUBKTNV-1" vertex="1">
          <mxGeometry x="180" y="80" width="80" height="40" as="geometry" />
        </mxCell>
        <mxCell id="xWIB879WQATlD4tQyrFy-1" value="" style="edgeStyle=orthogonalEdgeStyle;rounded=0;orthogonalLoop=1;jettySize=auto;html=1;" parent="WIyWlLk6GJQsqaUBKTNV-1" source="WIyWlLk6GJQsqaUBKTNV-6" target="xWIB879WQATlD4tQyrFy-0" edge="1">
          <mxGeometry relative="1" as="geometry" />
        </mxCell>
        <mxCell id="xWIB879WQATlD4tQyrFy-10" value="true" style="edgeLabel;html=1;align=center;verticalAlign=middle;resizable=0;points=[];" parent="xWIB879WQATlD4tQyrFy-1" vertex="1" connectable="0">
          <mxGeometry x="-0.0556" y="1" relative="1" as="geometry">
            <mxPoint x="1" y="-9" as="offset" />
          </mxGeometry>
        </mxCell>
        <mxCell id="xWIB879WQATlD4tQyrFy-11" style="edgeStyle=orthogonalEdgeStyle;rounded=0;orthogonalLoop=1;jettySize=auto;html=1;exitX=0;exitY=0.5;exitDx=0;exitDy=0;entryX=0.5;entryY=0;entryDx=0;entryDy=0;" parent="WIyWlLk6GJQsqaUBKTNV-1" source="WIyWlLk6GJQsqaUBKTNV-6" target="xWIB879WQATlD4tQyrFy-7" edge="1">
          <mxGeometry relative="1" as="geometry" />
        </mxCell>
        <mxCell id="xWIB879WQATlD4tQyrFy-12" value="false" style="edgeLabel;html=1;align=center;verticalAlign=middle;resizable=0;points=[];" parent="xWIB879WQATlD4tQyrFy-11" vertex="1" connectable="0">
          <mxGeometry x="-0.2156" y="-2" relative="1" as="geometry">
            <mxPoint x="22" y="-33" as="offset" />
          </mxGeometry>
        </mxCell>
        <mxCell id="WIyWlLk6GJQsqaUBKTNV-6" value="Y &amp;gt; 0" style="rhombus;whiteSpace=wrap;html=1;shadow=0;fontFamily=Helvetica;fontSize=12;align=center;strokeWidth=1;spacing=6;spacingTop=-4;" parent="WIyWlLk6GJQsqaUBKTNV-1" vertex="1">
          <mxGeometry x="180" y="160" width="80" height="40" as="geometry" />
        </mxCell>
        <mxCell id="xWIB879WQATlD4tQyrFy-28" style="edgeStyle=orthogonalEdgeStyle;rounded=0;orthogonalLoop=1;jettySize=auto;html=1;exitX=1;exitY=0.5;exitDx=0;exitDy=0;" parent="WIyWlLk6GJQsqaUBKTNV-1" source="xWIB879WQATlD4tQyrFy-0" target="xWIB879WQATlD4tQyrFy-5" edge="1">
          <mxGeometry relative="1" as="geometry" />
        </mxCell>
        <mxCell id="xWIB879WQATlD4tQyrFy-29" value="false" style="edgeLabel;html=1;align=center;verticalAlign=middle;resizable=0;points=[];" parent="xWIB879WQATlD4tQyrFy-28" vertex="1" connectable="0">
          <mxGeometry x="-0.115" relative="1" as="geometry">
            <mxPoint x="20" y="17" as="offset" />
          </mxGeometry>
        </mxCell>
        <mxCell id="xWIB879WQATlD4tQyrFy-30" style="edgeStyle=orthogonalEdgeStyle;rounded=0;orthogonalLoop=1;jettySize=auto;html=1;exitX=0.5;exitY=1;exitDx=0;exitDy=0;entryX=0.5;entryY=0;entryDx=0;entryDy=0;" parent="WIyWlLk6GJQsqaUBKTNV-1" source="xWIB879WQATlD4tQyrFy-0" target="xWIB879WQATlD4tQyrFy-4" edge="1">
          <mxGeometry relative="1" as="geometry" />
        </mxCell>
        <mxCell id="xWIB879WQATlD4tQyrFy-31" value="true" style="edgeLabel;html=1;align=center;verticalAlign=middle;resizable=0;points=[];" parent="xWIB879WQATlD4tQyrFy-30" vertex="1" connectable="0">
          <mxGeometry x="0.0335" relative="1" as="geometry">
            <mxPoint x="-3" y="-10" as="offset" />
          </mxGeometry>
        </mxCell>
        <mxCell id="xWIB879WQATlD4tQyrFy-0" value="X &amp;gt; 0" style="rhombus;whiteSpace=wrap;html=1;shadow=0;fontFamily=Helvetica;fontSize=12;align=center;strokeWidth=1;spacing=6;spacingTop=-4;" parent="WIyWlLk6GJQsqaUBKTNV-1" vertex="1">
          <mxGeometry x="360" y="160" width="80" height="40" as="geometry" />
        </mxCell>
        <mxCell id="xWIB879WQATlD4tQyrFy-4" value="Y = Y - X" style="rounded=1;whiteSpace=wrap;html=1;" parent="WIyWlLk6GJQsqaUBKTNV-1" vertex="1">
          <mxGeometry x="360" y="245" width="80" height="40" as="geometry" />
        </mxCell>
        <mxCell id="xWIB879WQATlD4tQyrFy-27" style="edgeStyle=orthogonalEdgeStyle;rounded=0;orthogonalLoop=1;jettySize=auto;html=1;exitX=0.5;exitY=1;exitDx=0;exitDy=0;entryX=0.5;entryY=1;entryDx=0;entryDy=0;" parent="WIyWlLk6GJQsqaUBKTNV-1" source="xWIB879WQATlD4tQyrFy-5" target="WIyWlLk6GJQsqaUBKTNV-6" edge="1">
          <mxGeometry relative="1" as="geometry" />
        </mxCell>
        <mxCell id="xWIB879WQATlD4tQyrFy-5" value="input(X)" style="rounded=1;whiteSpace=wrap;html=1;" parent="WIyWlLk6GJQsqaUBKTNV-1" vertex="1">
          <mxGeometry x="480" y="245" width="80" height="40" as="geometry" />
        </mxCell>
        <mxCell id="sH0l-n7C2zGjy2MOaQpX-1" value="" style="edgeStyle=orthogonalEdgeStyle;rounded=0;orthogonalLoop=1;jettySize=auto;html=1;" edge="1" parent="WIyWlLk6GJQsqaUBKTNV-1" source="xWIB879WQATlD4tQyrFy-7" target="sH0l-n7C2zGjy2MOaQpX-0">
          <mxGeometry relative="1" as="geometry" />
        </mxCell>
        <mxCell id="xWIB879WQATlD4tQyrFy-7" value="output(X, Y)" style="rounded=1;whiteSpace=wrap;html=1;" parent="WIyWlLk6GJQsqaUBKTNV-1" vertex="1">
          <mxGeometry x="100" y="230" width="80" height="40" as="geometry" />
        </mxCell>
        <mxCell id="xWIB879WQATlD4tQyrFy-26" value="" style="endArrow=classic;html=1;rounded=0;exitX=0;exitY=0.25;exitDx=0;exitDy=0;entryX=1;entryY=1;entryDx=0;entryDy=0;" parent="WIyWlLk6GJQsqaUBKTNV-1" source="xWIB879WQATlD4tQyrFy-4" target="WIyWlLk6GJQsqaUBKTNV-6" edge="1">
          <mxGeometry width="50" height="50" relative="1" as="geometry">
            <mxPoint x="320" y="300" as="sourcePoint" />
            <mxPoint x="370" y="250" as="targetPoint" />
          </mxGeometry>
        </mxCell>
        <mxCell id="xWIB879WQATlD4tQyrFy-32" value="(1)" style="text;html=1;align=center;verticalAlign=middle;resizable=0;points=[];autosize=1;strokeColor=none;fillColor=none;" parent="WIyWlLk6GJQsqaUBKTNV-1" vertex="1">
          <mxGeometry x="140" y="80" width="40" height="30" as="geometry" />
        </mxCell>
        <mxCell id="xWIB879WQATlD4tQyrFy-33" value="(2)" style="text;html=1;align=center;verticalAlign=middle;resizable=0;points=[];autosize=1;strokeColor=none;fillColor=none;" parent="WIyWlLk6GJQsqaUBKTNV-1" vertex="1">
          <mxGeometry x="180" y="140" width="40" height="30" as="geometry" />
        </mxCell>
        <mxCell id="xWIB879WQATlD4tQyrFy-34" value="(3)" style="text;html=1;align=center;verticalAlign=middle;resizable=0;points=[];autosize=1;strokeColor=none;fillColor=none;" parent="WIyWlLk6GJQsqaUBKTNV-1" vertex="1">
          <mxGeometry x="350" y="140" width="40" height="30" as="geometry" />
        </mxCell>
        <mxCell id="xWIB879WQATlD4tQyrFy-35" value="(4)" style="text;html=1;align=center;verticalAlign=middle;resizable=0;points=[];autosize=1;strokeColor=none;fillColor=none;" parent="WIyWlLk6GJQsqaUBKTNV-1" vertex="1">
          <mxGeometry x="320" y="255" width="40" height="30" as="geometry" />
        </mxCell>
        <mxCell id="xWIB879WQATlD4tQyrFy-36" value="(5)" style="text;html=1;align=center;verticalAlign=middle;resizable=0;points=[];autosize=1;strokeColor=none;fillColor=none;" parent="WIyWlLk6GJQsqaUBKTNV-1" vertex="1">
          <mxGeometry x="560" y="250" width="40" height="30" as="geometry" />
        </mxCell>
        <mxCell id="xWIB879WQATlD4tQyrFy-37" value="(6)" style="text;html=1;align=center;verticalAlign=middle;resizable=0;points=[];autosize=1;strokeColor=none;fillColor=none;" parent="WIyWlLk6GJQsqaUBKTNV-1" vertex="1">
          <mxGeometry x="60" y="235" width="40" height="30" as="geometry" />
        </mxCell>
        <mxCell id="sH0l-n7C2zGjy2MOaQpX-0" value="exit" style="rounded=1;whiteSpace=wrap;html=1;" vertex="1" parent="WIyWlLk6GJQsqaUBKTNV-1">
          <mxGeometry x="100" y="305" width="80" height="40" as="geometry" />
        </mxCell>
      </root>
    </mxGraphModel>
  </diagram>
  <diagram id="QUfUoJzy_56KnRc4T-Fb" name="Page-2">
    <mxGraphModel dx="1452" dy="647" grid="1" gridSize="10" guides="1" tooltips="1" connect="1" arrows="1" fold="1" page="1" pageScale="1" pageWidth="850" pageHeight="1100" math="0" shadow="0">
      <root>
        <mxCell id="0" />
        <mxCell id="1" parent="0" />
        <mxCell id="sg8qjJtu5pZPSP6LutEH-4" value="" style="edgeStyle=orthogonalEdgeStyle;rounded=0;orthogonalLoop=1;jettySize=auto;html=1;" parent="1" source="sg8qjJtu5pZPSP6LutEH-1" target="sg8qjJtu5pZPSP6LutEH-3" edge="1">
          <mxGeometry relative="1" as="geometry" />
        </mxCell>
        <mxCell id="sg8qjJtu5pZPSP6LutEH-1" value="calFactorial (int n)" style="rounded=1;whiteSpace=wrap;html=1;" parent="1" vertex="1">
          <mxGeometry x="240" y="180" width="120" height="40" as="geometry" />
        </mxCell>
        <mxCell id="sg8qjJtu5pZPSP6LutEH-2" style="edgeStyle=orthogonalEdgeStyle;rounded=0;orthogonalLoop=1;jettySize=auto;html=1;exitX=0.5;exitY=1;exitDx=0;exitDy=0;" parent="1" source="sg8qjJtu5pZPSP6LutEH-1" target="sg8qjJtu5pZPSP6LutEH-1" edge="1">
          <mxGeometry relative="1" as="geometry" />
        </mxCell>
        <mxCell id="sg8qjJtu5pZPSP6LutEH-6" value="" style="edgeStyle=orthogonalEdgeStyle;rounded=0;orthogonalLoop=1;jettySize=auto;html=1;" parent="1" source="sg8qjJtu5pZPSP6LutEH-3" target="sg8qjJtu5pZPSP6LutEH-5" edge="1">
          <mxGeometry relative="1" as="geometry" />
        </mxCell>
        <mxCell id="sg8qjJtu5pZPSP6LutEH-3" value="int result = 1" style="rounded=1;whiteSpace=wrap;html=1;" parent="1" vertex="1">
          <mxGeometry x="240" y="260" width="120" height="40" as="geometry" />
        </mxCell>
        <mxCell id="sg8qjJtu5pZPSP6LutEH-8" value="" style="edgeStyle=orthogonalEdgeStyle;rounded=0;orthogonalLoop=1;jettySize=auto;html=1;" parent="1" source="sg8qjJtu5pZPSP6LutEH-5" target="sg8qjJtu5pZPSP6LutEH-7" edge="1">
          <mxGeometry relative="1" as="geometry" />
        </mxCell>
        <mxCell id="sg8qjJtu5pZPSP6LutEH-5" value="int i = 1" style="rounded=1;whiteSpace=wrap;html=1;" parent="1" vertex="1">
          <mxGeometry x="240" y="340" width="120" height="40" as="geometry" />
        </mxCell>
        <mxCell id="sg8qjJtu5pZPSP6LutEH-12" value="" style="edgeStyle=orthogonalEdgeStyle;rounded=0;orthogonalLoop=1;jettySize=auto;html=1;" parent="1" source="sg8qjJtu5pZPSP6LutEH-7" target="sg8qjJtu5pZPSP6LutEH-9" edge="1">
          <mxGeometry relative="1" as="geometry" />
        </mxCell>
        <mxCell id="sg8qjJtu5pZPSP6LutEH-13" value="true" style="edgeLabel;html=1;align=center;verticalAlign=middle;resizable=0;points=[];" parent="sg8qjJtu5pZPSP6LutEH-12" vertex="1" connectable="0">
          <mxGeometry x="-0.0683" y="-1" relative="1" as="geometry">
            <mxPoint x="21" as="offset" />
          </mxGeometry>
        </mxCell>
        <mxCell id="sg8qjJtu5pZPSP6LutEH-16" value="" style="edgeStyle=orthogonalEdgeStyle;rounded=0;orthogonalLoop=1;jettySize=auto;html=1;" parent="1" source="sg8qjJtu5pZPSP6LutEH-7" target="sg8qjJtu5pZPSP6LutEH-15" edge="1">
          <mxGeometry relative="1" as="geometry" />
        </mxCell>
        <mxCell id="sg8qjJtu5pZPSP6LutEH-17" value="false" style="edgeLabel;html=1;align=center;verticalAlign=middle;resizable=0;points=[];" parent="sg8qjJtu5pZPSP6LutEH-16" vertex="1" connectable="0">
          <mxGeometry x="-0.4197" y="2" relative="1" as="geometry">
            <mxPoint x="6" y="-8" as="offset" />
          </mxGeometry>
        </mxCell>
        <mxCell id="sg8qjJtu5pZPSP6LutEH-7" value="i &amp;lt;= n" style="rhombus;whiteSpace=wrap;html=1;rounded=1;arcSize=0;" parent="1" vertex="1">
          <mxGeometry x="240" y="420" width="120" height="60" as="geometry" />
        </mxCell>
        <mxCell id="sg8qjJtu5pZPSP6LutEH-11" value="" style="edgeStyle=orthogonalEdgeStyle;rounded=0;orthogonalLoop=1;jettySize=auto;html=1;" parent="1" source="sg8qjJtu5pZPSP6LutEH-9" target="sg8qjJtu5pZPSP6LutEH-10" edge="1">
          <mxGeometry relative="1" as="geometry" />
        </mxCell>
        <mxCell id="sg8qjJtu5pZPSP6LutEH-9" value="result = result * i" style="rounded=1;whiteSpace=wrap;html=1;" parent="1" vertex="1">
          <mxGeometry x="240" y="520" width="120" height="40" as="geometry" />
        </mxCell>
        <mxCell id="sg8qjJtu5pZPSP6LutEH-14" style="edgeStyle=orthogonalEdgeStyle;rounded=0;orthogonalLoop=1;jettySize=auto;html=1;exitX=0;exitY=0.5;exitDx=0;exitDy=0;entryX=0;entryY=0.5;entryDx=0;entryDy=0;" parent="1" source="sg8qjJtu5pZPSP6LutEH-10" target="sg8qjJtu5pZPSP6LutEH-7" edge="1">
          <mxGeometry relative="1" as="geometry">
            <Array as="points">
              <mxPoint x="200" y="620" />
              <mxPoint x="200" y="450" />
            </Array>
          </mxGeometry>
        </mxCell>
        <mxCell id="sg8qjJtu5pZPSP6LutEH-10" value="i++" style="rounded=1;whiteSpace=wrap;html=1;" parent="1" vertex="1">
          <mxGeometry x="280" y="600" width="40" height="40" as="geometry" />
        </mxCell>
        <mxCell id="CmysR08Jcz5V6fgtV7r_-2" value="" style="edgeStyle=orthogonalEdgeStyle;rounded=0;orthogonalLoop=1;jettySize=auto;html=1;" edge="1" parent="1" source="sg8qjJtu5pZPSP6LutEH-15" target="CmysR08Jcz5V6fgtV7r_-1">
          <mxGeometry relative="1" as="geometry" />
        </mxCell>
        <mxCell id="sg8qjJtu5pZPSP6LutEH-15" value="return result" style="rounded=1;whiteSpace=wrap;html=1;" parent="1" vertex="1">
          <mxGeometry x="410" y="430" width="120" height="40" as="geometry" />
        </mxCell>
        <mxCell id="sg8qjJtu5pZPSP6LutEH-19" value="(1)" style="text;html=1;align=center;verticalAlign=middle;resizable=0;points=[];autosize=1;strokeColor=none;fillColor=none;" parent="1" vertex="1">
          <mxGeometry x="200" y="185" width="40" height="30" as="geometry" />
        </mxCell>
        <mxCell id="sg8qjJtu5pZPSP6LutEH-20" value="(2)" style="text;html=1;align=center;verticalAlign=middle;resizable=0;points=[];autosize=1;strokeColor=none;fillColor=none;" parent="1" vertex="1">
          <mxGeometry x="200" y="265" width="40" height="30" as="geometry" />
        </mxCell>
        <mxCell id="sg8qjJtu5pZPSP6LutEH-21" value="(3)" style="text;html=1;align=center;verticalAlign=middle;resizable=0;points=[];autosize=1;strokeColor=none;fillColor=none;" parent="1" vertex="1">
          <mxGeometry x="200" y="345" width="40" height="30" as="geometry" />
        </mxCell>
        <mxCell id="sg8qjJtu5pZPSP6LutEH-22" value="(4)" style="text;html=1;align=center;verticalAlign=middle;resizable=0;points=[];autosize=1;strokeColor=none;fillColor=none;" parent="1" vertex="1">
          <mxGeometry x="230" y="410" width="40" height="30" as="geometry" />
        </mxCell>
        <mxCell id="sg8qjJtu5pZPSP6LutEH-23" value="(5)" style="text;html=1;align=center;verticalAlign=middle;resizable=0;points=[];autosize=1;strokeColor=none;fillColor=none;" parent="1" vertex="1">
          <mxGeometry x="200" y="525" width="40" height="30" as="geometry" />
        </mxCell>
        <mxCell id="sg8qjJtu5pZPSP6LutEH-24" value="(6)" style="text;html=1;align=center;verticalAlign=middle;resizable=0;points=[];autosize=1;strokeColor=none;fillColor=none;" parent="1" vertex="1">
          <mxGeometry x="320" y="605" width="40" height="30" as="geometry" />
        </mxCell>
        <mxCell id="sg8qjJtu5pZPSP6LutEH-27" value="(7)" style="text;html=1;align=center;verticalAlign=middle;resizable=0;points=[];autosize=1;strokeColor=none;fillColor=none;" parent="1" vertex="1">
          <mxGeometry x="530" y="435" width="40" height="30" as="geometry" />
        </mxCell>
        <mxCell id="CmysR08Jcz5V6fgtV7r_-1" value="exit" style="rounded=1;whiteSpace=wrap;html=1;" vertex="1" parent="1">
          <mxGeometry x="410" y="520" width="120" height="40" as="geometry" />
        </mxCell>
      </root>
    </mxGraphModel>
  </diagram>
  <diagram id="2mdrpGb4Vammms2UW1vC" name="Page-3">
    <mxGraphModel dx="1452" dy="647" grid="1" gridSize="10" guides="1" tooltips="1" connect="1" arrows="1" fold="1" page="1" pageScale="1" pageWidth="850" pageHeight="1100" math="0" shadow="0">
      <root>
        <mxCell id="0" />
        <mxCell id="1" parent="0" />
        <mxCell id="J9WVDO0wvZ6Ad2C9eaWh-3" value="" style="edgeStyle=orthogonalEdgeStyle;rounded=0;orthogonalLoop=1;jettySize=auto;html=1;" parent="1" source="J9WVDO0wvZ6Ad2C9eaWh-1" target="J9WVDO0wvZ6Ad2C9eaWh-2" edge="1">
          <mxGeometry relative="1" as="geometry" />
        </mxCell>
        <mxCell id="J9WVDO0wvZ6Ad2C9eaWh-1" value="UCLN (int m, int n)" style="rounded=1;whiteSpace=wrap;html=1;" parent="1" vertex="1">
          <mxGeometry x="240" y="80" width="120" height="40" as="geometry" />
        </mxCell>
        <mxCell id="J9WVDO0wvZ6Ad2C9eaWh-13" value="" style="edgeStyle=orthogonalEdgeStyle;rounded=0;orthogonalLoop=1;jettySize=auto;html=1;" parent="1" source="J9WVDO0wvZ6Ad2C9eaWh-2" target="J9WVDO0wvZ6Ad2C9eaWh-6" edge="1">
          <mxGeometry relative="1" as="geometry" />
        </mxCell>
        <mxCell id="J9WVDO0wvZ6Ad2C9eaWh-14" value="true" style="edgeLabel;html=1;align=center;verticalAlign=middle;resizable=0;points=[];" parent="J9WVDO0wvZ6Ad2C9eaWh-13" vertex="1" connectable="0">
          <mxGeometry x="0.1186" relative="1" as="geometry">
            <mxPoint x="-2" y="-10" as="offset" />
          </mxGeometry>
        </mxCell>
        <mxCell id="J9WVDO0wvZ6Ad2C9eaWh-15" value="" style="edgeStyle=orthogonalEdgeStyle;rounded=0;orthogonalLoop=1;jettySize=auto;html=1;" parent="1" source="J9WVDO0wvZ6Ad2C9eaWh-2" target="J9WVDO0wvZ6Ad2C9eaWh-7" edge="1">
          <mxGeometry relative="1" as="geometry" />
        </mxCell>
        <mxCell id="J9WVDO0wvZ6Ad2C9eaWh-16" value="false" style="edgeLabel;html=1;align=center;verticalAlign=middle;resizable=0;points=[];" parent="J9WVDO0wvZ6Ad2C9eaWh-15" vertex="1" connectable="0">
          <mxGeometry x="-0.2556" y="-1" relative="1" as="geometry">
            <mxPoint x="21" y="5" as="offset" />
          </mxGeometry>
        </mxCell>
        <mxCell id="J9WVDO0wvZ6Ad2C9eaWh-2" value="m &amp;lt; 0" style="rhombus;whiteSpace=wrap;html=1;rounded=1;arcSize=0;" parent="1" vertex="1">
          <mxGeometry x="240" y="160" width="120" height="60" as="geometry" />
        </mxCell>
        <mxCell id="J9WVDO0wvZ6Ad2C9eaWh-6" value="m = -m" style="rounded=1;whiteSpace=wrap;html=1;" parent="1" vertex="1">
          <mxGeometry x="400" y="170" width="80" height="40" as="geometry" />
        </mxCell>
        <mxCell id="J9WVDO0wvZ6Ad2C9eaWh-17" value="" style="edgeStyle=orthogonalEdgeStyle;rounded=0;orthogonalLoop=1;jettySize=auto;html=1;" parent="1" source="J9WVDO0wvZ6Ad2C9eaWh-7" target="J9WVDO0wvZ6Ad2C9eaWh-8" edge="1">
          <mxGeometry relative="1" as="geometry" />
        </mxCell>
        <mxCell id="J9WVDO0wvZ6Ad2C9eaWh-18" value="true" style="edgeLabel;html=1;align=center;verticalAlign=middle;resizable=0;points=[];" parent="J9WVDO0wvZ6Ad2C9eaWh-17" vertex="1" connectable="0">
          <mxGeometry x="-0.3444" y="3" relative="1" as="geometry">
            <mxPoint x="7" y="-7" as="offset" />
          </mxGeometry>
        </mxCell>
        <mxCell id="J9WVDO0wvZ6Ad2C9eaWh-22" value="true" style="edgeLabel;html=1;align=center;verticalAlign=middle;resizable=0;points=[];" parent="J9WVDO0wvZ6Ad2C9eaWh-17" vertex="1" connectable="0">
          <mxGeometry x="-0.3444" y="3" relative="1" as="geometry">
            <mxPoint x="7" y="93" as="offset" />
          </mxGeometry>
        </mxCell>
        <mxCell id="J9WVDO0wvZ6Ad2C9eaWh-26" value="true" style="edgeLabel;html=1;align=center;verticalAlign=middle;resizable=0;points=[];" parent="J9WVDO0wvZ6Ad2C9eaWh-17" vertex="1" connectable="0">
          <mxGeometry x="-0.3444" y="3" relative="1" as="geometry">
            <mxPoint x="7" y="193" as="offset" />
          </mxGeometry>
        </mxCell>
        <mxCell id="J9WVDO0wvZ6Ad2C9eaWh-19" value="" style="edgeStyle=orthogonalEdgeStyle;rounded=0;orthogonalLoop=1;jettySize=auto;html=1;" parent="1" source="J9WVDO0wvZ6Ad2C9eaWh-7" target="J9WVDO0wvZ6Ad2C9eaWh-9" edge="1">
          <mxGeometry relative="1" as="geometry" />
        </mxCell>
        <mxCell id="J9WVDO0wvZ6Ad2C9eaWh-20" value="false" style="edgeLabel;html=1;align=center;verticalAlign=middle;resizable=0;points=[];" parent="J9WVDO0wvZ6Ad2C9eaWh-19" vertex="1" connectable="0">
          <mxGeometry x="0.1476" y="1" relative="1" as="geometry">
            <mxPoint x="19" as="offset" />
          </mxGeometry>
        </mxCell>
        <mxCell id="J9WVDO0wvZ6Ad2C9eaWh-23" value="false" style="edgeLabel;html=1;align=center;verticalAlign=middle;resizable=0;points=[];" parent="J9WVDO0wvZ6Ad2C9eaWh-19" vertex="1" connectable="0">
          <mxGeometry x="0.1476" y="1" relative="1" as="geometry">
            <mxPoint x="19" y="100" as="offset" />
          </mxGeometry>
        </mxCell>
        <mxCell id="J9WVDO0wvZ6Ad2C9eaWh-27" value="false" style="edgeLabel;html=1;align=center;verticalAlign=middle;resizable=0;points=[];" parent="J9WVDO0wvZ6Ad2C9eaWh-19" vertex="1" connectable="0">
          <mxGeometry x="0.1476" y="1" relative="1" as="geometry">
            <mxPoint x="19" y="200" as="offset" />
          </mxGeometry>
        </mxCell>
        <mxCell id="J9WVDO0wvZ6Ad2C9eaWh-7" value="n &amp;lt; 0" style="rhombus;whiteSpace=wrap;html=1;rounded=1;arcSize=0;" parent="1" vertex="1">
          <mxGeometry x="240" y="260" width="120" height="60" as="geometry" />
        </mxCell>
        <mxCell id="J9WVDO0wvZ6Ad2C9eaWh-8" value="n = -n" style="rounded=1;whiteSpace=wrap;html=1;" parent="1" vertex="1">
          <mxGeometry x="400" y="270" width="80" height="40" as="geometry" />
        </mxCell>
        <mxCell id="J9WVDO0wvZ6Ad2C9eaWh-21" value="" style="edgeStyle=orthogonalEdgeStyle;rounded=0;orthogonalLoop=1;jettySize=auto;html=1;" parent="1" source="J9WVDO0wvZ6Ad2C9eaWh-9" target="J9WVDO0wvZ6Ad2C9eaWh-10" edge="1">
          <mxGeometry relative="1" as="geometry" />
        </mxCell>
        <mxCell id="J9WVDO0wvZ6Ad2C9eaWh-28" value="" style="edgeStyle=orthogonalEdgeStyle;rounded=0;orthogonalLoop=1;jettySize=auto;html=1;" parent="1" source="J9WVDO0wvZ6Ad2C9eaWh-9" target="J9WVDO0wvZ6Ad2C9eaWh-11" edge="1">
          <mxGeometry relative="1" as="geometry" />
        </mxCell>
        <mxCell id="J9WVDO0wvZ6Ad2C9eaWh-9" value="m == 0" style="rhombus;whiteSpace=wrap;html=1;rounded=1;arcSize=0;" parent="1" vertex="1">
          <mxGeometry x="240" y="360" width="120" height="60" as="geometry" />
        </mxCell>
        <mxCell id="J9WVDO0wvZ6Ad2C9eaWh-10" value="return n" style="rounded=1;whiteSpace=wrap;html=1;" parent="1" vertex="1">
          <mxGeometry x="400" y="370" width="80" height="40" as="geometry" />
        </mxCell>
        <mxCell id="J9WVDO0wvZ6Ad2C9eaWh-29" value="" style="edgeStyle=orthogonalEdgeStyle;rounded=0;orthogonalLoop=1;jettySize=auto;html=1;" parent="1" source="J9WVDO0wvZ6Ad2C9eaWh-11" target="J9WVDO0wvZ6Ad2C9eaWh-12" edge="1">
          <mxGeometry relative="1" as="geometry" />
        </mxCell>
        <mxCell id="J9WVDO0wvZ6Ad2C9eaWh-31" value="" style="edgeStyle=orthogonalEdgeStyle;rounded=0;orthogonalLoop=1;jettySize=auto;html=1;" parent="1" source="J9WVDO0wvZ6Ad2C9eaWh-11" target="J9WVDO0wvZ6Ad2C9eaWh-30" edge="1">
          <mxGeometry relative="1" as="geometry" />
        </mxCell>
        <mxCell id="J9WVDO0wvZ6Ad2C9eaWh-11" value="n == 0" style="rhombus;whiteSpace=wrap;html=1;rounded=1;arcSize=0;" parent="1" vertex="1">
          <mxGeometry x="240" y="460" width="120" height="60" as="geometry" />
        </mxCell>
        <mxCell id="J9WVDO0wvZ6Ad2C9eaWh-12" value="return m" style="rounded=1;whiteSpace=wrap;html=1;" parent="1" vertex="1">
          <mxGeometry x="400" y="470" width="80" height="40" as="geometry" />
        </mxCell>
        <mxCell id="J9WVDO0wvZ6Ad2C9eaWh-37" value="" style="edgeStyle=orthogonalEdgeStyle;rounded=0;orthogonalLoop=1;jettySize=auto;html=1;exitX=0;exitY=0.5;exitDx=0;exitDy=0;" parent="1" source="J9WVDO0wvZ6Ad2C9eaWh-30" target="J9WVDO0wvZ6Ad2C9eaWh-36" edge="1">
          <mxGeometry relative="1" as="geometry" />
        </mxCell>
        <mxCell id="J9WVDO0wvZ6Ad2C9eaWh-38" value="true" style="edgeLabel;html=1;align=center;verticalAlign=middle;resizable=0;points=[];" parent="J9WVDO0wvZ6Ad2C9eaWh-37" vertex="1" connectable="0">
          <mxGeometry x="-0.1211" y="-1" relative="1" as="geometry">
            <mxPoint x="21" y="-9" as="offset" />
          </mxGeometry>
        </mxCell>
        <mxCell id="J9WVDO0wvZ6Ad2C9eaWh-30" value="m != n" style="rhombus;whiteSpace=wrap;html=1;rounded=1;arcSize=0;" parent="1" vertex="1">
          <mxGeometry x="240" y="560" width="120" height="60" as="geometry" />
        </mxCell>
        <mxCell id="J9WVDO0wvZ6Ad2C9eaWh-35" value="return m" style="rounded=1;whiteSpace=wrap;html=1;" parent="1" vertex="1">
          <mxGeometry x="500" y="530" width="80" height="40" as="geometry" />
        </mxCell>
        <mxCell id="J9WVDO0wvZ6Ad2C9eaWh-40" value="" style="edgeStyle=orthogonalEdgeStyle;rounded=0;orthogonalLoop=1;jettySize=auto;html=1;exitX=1;exitY=0.5;exitDx=0;exitDy=0;" parent="1" source="J9WVDO0wvZ6Ad2C9eaWh-36" target="J9WVDO0wvZ6Ad2C9eaWh-39" edge="1">
          <mxGeometry relative="1" as="geometry" />
        </mxCell>
        <mxCell id="J9WVDO0wvZ6Ad2C9eaWh-41" value="true" style="edgeLabel;html=1;align=center;verticalAlign=middle;resizable=0;points=[];" parent="J9WVDO0wvZ6Ad2C9eaWh-40" vertex="1" connectable="0">
          <mxGeometry x="-0.2037" y="2" relative="1" as="geometry">
            <mxPoint x="4" y="-8" as="offset" />
          </mxGeometry>
        </mxCell>
        <mxCell id="J9WVDO0wvZ6Ad2C9eaWh-43" value="" style="edgeStyle=orthogonalEdgeStyle;rounded=0;orthogonalLoop=1;jettySize=auto;html=1;exitX=0.5;exitY=1;exitDx=0;exitDy=0;entryX=0;entryY=0.5;entryDx=0;entryDy=0;" parent="1" source="J9WVDO0wvZ6Ad2C9eaWh-36" target="J9WVDO0wvZ6Ad2C9eaWh-42" edge="1">
          <mxGeometry relative="1" as="geometry" />
        </mxCell>
        <mxCell id="J9WVDO0wvZ6Ad2C9eaWh-44" value="false" style="edgeLabel;html=1;align=center;verticalAlign=middle;resizable=0;points=[];" parent="J9WVDO0wvZ6Ad2C9eaWh-43" vertex="1" connectable="0">
          <mxGeometry x="-0.3574" y="1" relative="1" as="geometry">
            <mxPoint x="19" y="-14" as="offset" />
          </mxGeometry>
        </mxCell>
        <mxCell id="J9WVDO0wvZ6Ad2C9eaWh-36" value="m &amp;gt; n" style="rhombus;whiteSpace=wrap;html=1;rounded=1;arcSize=0;" parent="1" vertex="1">
          <mxGeometry x="80" y="650" width="120" height="60" as="geometry" />
        </mxCell>
        <mxCell id="J9WVDO0wvZ6Ad2C9eaWh-47" style="edgeStyle=orthogonalEdgeStyle;rounded=0;orthogonalLoop=1;jettySize=auto;html=1;exitX=0.5;exitY=0;exitDx=0;exitDy=0;entryX=0.5;entryY=1;entryDx=0;entryDy=0;" parent="1" source="J9WVDO0wvZ6Ad2C9eaWh-39" target="J9WVDO0wvZ6Ad2C9eaWh-30" edge="1">
          <mxGeometry relative="1" as="geometry" />
        </mxCell>
        <mxCell id="J9WVDO0wvZ6Ad2C9eaWh-39" value="m = m - n" style="rounded=1;whiteSpace=wrap;html=1;" parent="1" vertex="1">
          <mxGeometry x="260" y="660" width="80" height="40" as="geometry" />
        </mxCell>
        <mxCell id="J9WVDO0wvZ6Ad2C9eaWh-48" style="edgeStyle=orthogonalEdgeStyle;rounded=0;orthogonalLoop=1;jettySize=auto;html=1;exitX=1;exitY=0.5;exitDx=0;exitDy=0;entryX=1;entryY=0.5;entryDx=0;entryDy=0;" parent="1" source="J9WVDO0wvZ6Ad2C9eaWh-42" target="J9WVDO0wvZ6Ad2C9eaWh-30" edge="1">
          <mxGeometry relative="1" as="geometry">
            <Array as="points">
              <mxPoint x="420" y="745" />
              <mxPoint x="420" y="590" />
            </Array>
          </mxGeometry>
        </mxCell>
        <mxCell id="J9WVDO0wvZ6Ad2C9eaWh-42" value="n = n - m" style="rounded=1;whiteSpace=wrap;html=1;" parent="1" vertex="1">
          <mxGeometry x="260" y="725" width="80" height="40" as="geometry" />
        </mxCell>
        <mxCell id="J9WVDO0wvZ6Ad2C9eaWh-49" value="(1)" style="text;html=1;align=center;verticalAlign=middle;resizable=0;points=[];autosize=1;strokeColor=none;fillColor=none;" parent="1" vertex="1">
          <mxGeometry x="200" y="85" width="40" height="30" as="geometry" />
        </mxCell>
        <mxCell id="J9WVDO0wvZ6Ad2C9eaWh-50" value="(2)" style="text;html=1;align=center;verticalAlign=middle;resizable=0;points=[];autosize=1;strokeColor=none;fillColor=none;" parent="1" vertex="1">
          <mxGeometry x="200" y="175" width="40" height="30" as="geometry" />
        </mxCell>
        <mxCell id="J9WVDO0wvZ6Ad2C9eaWh-51" value="(3)" style="text;html=1;align=center;verticalAlign=middle;resizable=0;points=[];autosize=1;strokeColor=none;fillColor=none;" parent="1" vertex="1">
          <mxGeometry x="480" y="175" width="40" height="30" as="geometry" />
        </mxCell>
        <mxCell id="J9WVDO0wvZ6Ad2C9eaWh-52" value="(4)" style="text;html=1;align=center;verticalAlign=middle;resizable=0;points=[];autosize=1;strokeColor=none;fillColor=none;" parent="1" vertex="1">
          <mxGeometry x="200" y="275" width="40" height="30" as="geometry" />
        </mxCell>
        <mxCell id="J9WVDO0wvZ6Ad2C9eaWh-53" value="(5)" style="text;html=1;align=center;verticalAlign=middle;resizable=0;points=[];autosize=1;strokeColor=none;fillColor=none;" parent="1" vertex="1">
          <mxGeometry x="470" y="270" width="40" height="30" as="geometry" />
        </mxCell>
        <mxCell id="J9WVDO0wvZ6Ad2C9eaWh-54" value="(6)" style="text;html=1;align=center;verticalAlign=middle;resizable=0;points=[];autosize=1;strokeColor=none;fillColor=none;" parent="1" vertex="1">
          <mxGeometry x="200" y="375" width="40" height="30" as="geometry" />
        </mxCell>
        <mxCell id="J9WVDO0wvZ6Ad2C9eaWh-55" value="(7)" style="text;html=1;align=center;verticalAlign=middle;resizable=0;points=[];autosize=1;strokeColor=none;fillColor=none;" parent="1" vertex="1">
          <mxGeometry x="470" y="350" width="40" height="30" as="geometry" />
        </mxCell>
        <mxCell id="J9WVDO0wvZ6Ad2C9eaWh-56" value="(8)" style="text;html=1;align=center;verticalAlign=middle;resizable=0;points=[];autosize=1;strokeColor=none;fillColor=none;" parent="1" vertex="1">
          <mxGeometry x="200" y="475" width="40" height="30" as="geometry" />
        </mxCell>
        <mxCell id="J9WVDO0wvZ6Ad2C9eaWh-57" value="(9)" style="text;html=1;align=center;verticalAlign=middle;resizable=0;points=[];autosize=1;strokeColor=none;fillColor=none;" parent="1" vertex="1">
          <mxGeometry x="490" y="475" width="40" height="30" as="geometry" />
        </mxCell>
        <mxCell id="J9WVDO0wvZ6Ad2C9eaWh-58" value="(10)" style="text;html=1;align=center;verticalAlign=middle;resizable=0;points=[];autosize=1;strokeColor=none;fillColor=none;" parent="1" vertex="1">
          <mxGeometry x="330" y="550" width="40" height="30" as="geometry" />
        </mxCell>
        <mxCell id="J9WVDO0wvZ6Ad2C9eaWh-59" value="(11)" style="text;html=1;align=center;verticalAlign=middle;resizable=0;points=[];autosize=1;strokeColor=none;fillColor=none;" parent="1" vertex="1">
          <mxGeometry x="80" y="640" width="40" height="30" as="geometry" />
        </mxCell>
        <mxCell id="J9WVDO0wvZ6Ad2C9eaWh-60" value="(12)" style="text;html=1;align=center;verticalAlign=middle;resizable=0;points=[];autosize=1;strokeColor=none;fillColor=none;" parent="1" vertex="1">
          <mxGeometry x="340" y="665" width="40" height="30" as="geometry" />
        </mxCell>
        <mxCell id="J9WVDO0wvZ6Ad2C9eaWh-61" value="(13)" style="text;html=1;align=center;verticalAlign=middle;resizable=0;points=[];autosize=1;strokeColor=none;fillColor=none;" parent="1" vertex="1">
          <mxGeometry x="220" y="765" width="40" height="30" as="geometry" />
        </mxCell>
        <mxCell id="J9WVDO0wvZ6Ad2C9eaWh-62" value="(14)" style="text;html=1;align=center;verticalAlign=middle;resizable=0;points=[];autosize=1;strokeColor=none;fillColor=none;" parent="1" vertex="1">
          <mxGeometry x="520" y="570" width="40" height="30" as="geometry" />
        </mxCell>
        <mxCell id="LDEggYUAb5czECfxxyAc-1" value="" style="endArrow=classic;html=1;rounded=0;exitX=0.5;exitY=1;exitDx=0;exitDy=0;entryX=1;entryY=0;entryDx=0;entryDy=0;" edge="1" parent="1" source="J9WVDO0wvZ6Ad2C9eaWh-6" target="J9WVDO0wvZ6Ad2C9eaWh-7">
          <mxGeometry width="50" height="50" relative="1" as="geometry">
            <mxPoint x="400" y="360" as="sourcePoint" />
            <mxPoint x="450" y="310" as="targetPoint" />
          </mxGeometry>
        </mxCell>
        <mxCell id="LDEggYUAb5czECfxxyAc-2" value="" style="endArrow=classic;html=1;rounded=0;exitX=0.5;exitY=1;exitDx=0;exitDy=0;entryX=1;entryY=0;entryDx=0;entryDy=0;" edge="1" parent="1" source="J9WVDO0wvZ6Ad2C9eaWh-8" target="J9WVDO0wvZ6Ad2C9eaWh-9">
          <mxGeometry width="50" height="50" relative="1" as="geometry">
            <mxPoint x="450" y="220" as="sourcePoint" />
            <mxPoint x="340" y="285" as="targetPoint" />
          </mxGeometry>
        </mxCell>
        <mxCell id="HFrLbOUcCFnntbdFWCWT-2" value="exit" style="rounded=1;whiteSpace=wrap;html=1;" vertex="1" parent="1">
          <mxGeometry x="560" y="370" width="80" height="40" as="geometry" />
        </mxCell>
        <mxCell id="HFrLbOUcCFnntbdFWCWT-4" value="" style="endArrow=classic;html=1;rounded=0;entryX=0.5;entryY=1;entryDx=0;entryDy=0;exitX=1;exitY=0.25;exitDx=0;exitDy=0;" edge="1" parent="1" source="J9WVDO0wvZ6Ad2C9eaWh-12" target="HFrLbOUcCFnntbdFWCWT-2">
          <mxGeometry width="50" height="50" relative="1" as="geometry">
            <mxPoint x="570" y="510" as="sourcePoint" />
            <mxPoint x="620" y="460" as="targetPoint" />
          </mxGeometry>
        </mxCell>
        <mxCell id="HFrLbOUcCFnntbdFWCWT-8" value="" style="endArrow=classic;html=1;rounded=0;exitX=1;exitY=0;exitDx=0;exitDy=0;entryX=0;entryY=0.5;entryDx=0;entryDy=0;" edge="1" parent="1" source="J9WVDO0wvZ6Ad2C9eaWh-30" target="J9WVDO0wvZ6Ad2C9eaWh-35">
          <mxGeometry width="50" height="50" relative="1" as="geometry">
            <mxPoint x="460" y="610" as="sourcePoint" />
            <mxPoint x="510" y="560" as="targetPoint" />
          </mxGeometry>
        </mxCell>
        <mxCell id="HFrLbOUcCFnntbdFWCWT-9" value="false" style="edgeLabel;html=1;align=center;verticalAlign=middle;resizable=0;points=[];" vertex="1" connectable="0" parent="HFrLbOUcCFnntbdFWCWT-8">
          <mxGeometry x="0.1499" y="-2" relative="1" as="geometry">
            <mxPoint x="-3" y="-13" as="offset" />
          </mxGeometry>
        </mxCell>
        <mxCell id="HFrLbOUcCFnntbdFWCWT-10" value="" style="endArrow=classic;html=1;rounded=0;entryX=0.75;entryY=1;entryDx=0;entryDy=0;exitX=0.75;exitY=0;exitDx=0;exitDy=0;" edge="1" parent="1" source="J9WVDO0wvZ6Ad2C9eaWh-35" target="HFrLbOUcCFnntbdFWCWT-2">
          <mxGeometry width="50" height="50" relative="1" as="geometry">
            <mxPoint x="490" y="490" as="sourcePoint" />
            <mxPoint x="610" y="420" as="targetPoint" />
          </mxGeometry>
        </mxCell>
        <mxCell id="HFrLbOUcCFnntbdFWCWT-11" value="" style="endArrow=classic;html=1;rounded=0;entryX=0;entryY=0.5;entryDx=0;entryDy=0;exitX=1;exitY=0.5;exitDx=0;exitDy=0;" edge="1" parent="1" source="J9WVDO0wvZ6Ad2C9eaWh-10" target="HFrLbOUcCFnntbdFWCWT-2">
          <mxGeometry width="50" height="50" relative="1" as="geometry">
            <mxPoint x="570" y="540" as="sourcePoint" />
            <mxPoint x="630" y="420" as="targetPoint" />
          </mxGeometry>
        </mxCell>
      </root>
    </mxGraphModel>
  </diagram>
</mxfile>
